<?xml version="1.0" standalone="no"?>
<!DOCTYPE svg PUBLIC "-//W3C//DTD SVG 20010904//EN"
 "http://www.w3.org/TR/2001/REC-SVG-20010904/DTD/svg10.dtd">
<svg version="1.0" xmlns="http://www.w3.org/2000/svg"
 width="384.000000pt" height="384.000000pt" viewBox="0 0 384.000000 384.000000"
 preserveAspectRatio="xMidYMid meet">
<metadata>
Created by potrace 1.14, written by Peter Selinger 2001-2017
</metadata>
<g transform="translate(0.000000,384.000000) scale(0.100000,-0.100000)"
fill="#000000" stroke="none">
<path d="M1750 3801 c11 -21 -3 -31 -15 -11 -4 6 -11 8 -16 5 -5 -4 -9 -1 -9
4 0 6 -5 11 -11 11 -6 0 -9 -9 -6 -20 4 -17 2 -18 -15 -9 -10 6 -27 8 -36 6
-15 -4 -15 -5 1 -6 19 -1 56 -31 38 -31 -5 0 -13 5 -16 10 -4 6 -15 8 -26 5
-10 -4 -19 -2 -19 3 0 5 -7 9 -15 9 -11 0 -12 -4 -4 -14 15 -17 -12 -18 -29
-1 -9 9 -12 9 -12 -1 0 -8 -6 -11 -16 -7 -9 3 -30 -4 -47 -16 -18 -11 -26 -15
-19 -8 16 19 15 33 -2 27 -7 -3 -19 0 -26 6 -10 10 -10 7 -1 -10 10 -19 9 -23
-4 -23 -8 0 -15 -5 -15 -12 0 -6 -7 -3 -16 8 -14 17 -15 17 -10 1 3 -10 2 -15
-3 -12 -6 3 -27 -4 -47 -16 -37 -20 -38 -20 -52 -2 -10 12 -16 14 -19 6 -2 -7
-12 -9 -21 -6 -15 5 -15 4 0 -8 10 -8 14 -18 10 -24 -11 -16 -47 -41 -39 -28
4 6 3 22 -2 35 -7 19 -10 20 -15 7 -5 -11 -16 -15 -34 -12 -17 3 -22 1 -15 -4
9 -6 7 -12 -8 -22 -12 -7 -18 -8 -14 -2 14 24 -12 9 -38 -21 -16 -18 -24 -24
-18 -13 8 17 6 21 -9 22 -15 1 -18 -4 -15 -26 3 -26 1 -28 -27 -25 -37 5 -101
-40 -93 -65 3 -12 -2 -16 -20 -17 -16 -1 -25 3 -25 13 0 13 -2 12 -15 -1 -8
-8 -12 -22 -9 -30 4 -11 2 -15 -8 -11 -8 3 -25 1 -39 -4 -13 -5 -18 -10 -11
-10 17 -1 15 -28 -3 -35 -9 -3 -12 -12 -8 -23 3 -10 3 -15 -2 -11 -4 4 -9 20
-11 35 -3 39 -3 40 -15 20 -5 -9 -7 -21 -4 -27 7 -12 -32 -33 -47 -24 -6 4 -9
3 -5 -2 3 -5 -1 -18 -9 -29 -13 -18 -14 -18 -14 0 0 16 -2 17 -17 3 -10 -9
-25 -18 -33 -21 -13 -5 -13 -6 1 -6 9 -1 16 -8 16 -16 0 -18 -2 -18 -27 -5
-13 7 -21 5 -31 -8 -13 -16 -13 -16 5 -2 18 14 19 14 12 -5 -5 -11 -9 -25 -9
-31 0 -5 -10 -10 -21 -10 -14 1 -22 -6 -24 -21 -2 -13 -8 -23 -13 -23 -5 0 -9
-10 -9 -21 0 -20 -1 -21 -25 -5 -29 19 -32 15 -8 -10 19 -19 26 -44 12 -44 -5
0 -9 7 -9 15 0 21 -4 19 -38 -14 -16 -17 -26 -33 -21 -38 13 -13 -15 -58 -34
-55 -10 2 -20 -5 -24 -15 -4 -10 -14 -23 -22 -30 -10 -8 -11 -12 -4 -13 6 0
15 5 18 10 3 6 11 10 17 10 6 0 3 -9 -6 -19 -11 -12 -14 -21 -7 -26 6 -3 11
-11 11 -18 0 -6 -7 -1 -16 12 -13 18 -18 20 -25 10 -4 -8 -3 -19 3 -26 8 -11
7 -12 -8 -7 -19 7 -19 7 0 -14 11 -12 14 -22 8 -22 -6 0 -14 5 -17 11 -9 13
-34 -19 -36 -46 -1 -17 -2 -17 -6 -2 -2 9 -9 17 -14 17 -12 0 -11 -7 1 -30 8
-16 7 -18 -4 -14 -8 3 -19 -3 -25 -14 -8 -16 -7 -21 5 -26 8 -3 12 -11 9 -17
-5 -8 -10 -8 -18 0 -6 6 -16 11 -21 11 -6 0 -5 -5 2 -12 15 -15 16 -38 2 -38
-5 0 -10 7 -10 16 0 8 -4 13 -9 10 -5 -3 -7 -15 -4 -25 3 -10 0 -22 -6 -25 -8
-5 -8 -13 -1 -26 9 -16 8 -18 -6 -13 -14 5 -14 3 -3 -14 11 -18 9 -24 -13 -46
-22 -22 -25 -32 -20 -73 4 -36 2 -45 -8 -39 -9 6 -10 3 0 -15 8 -15 8 -20 1
-16 -6 4 -11 0 -11 -9 0 -9 -4 -14 -9 -11 -4 3 -7 -8 -5 -24 2 -17 -1 -30 -6
-30 -5 0 -7 -6 -4 -14 3 -8 0 -17 -6 -21 -9 -6 -9 -9 0 -15 8 -5 3 -17 -15
-38 -15 -18 -22 -32 -17 -32 5 0 12 -9 15 -20 3 -11 2 -20 -2 -20 -6 0 -10
-24 -11 -74 -1 -11 3 -22 7 -25 17 -13 12 -29 -7 -24 -16 4 -19 2 -13 -12 4
-13 3 -16 -5 -11 -7 4 -12 3 -12 -3 0 -5 6 -11 13 -14 9 -3 9 -7 -2 -20 -7
-10 -9 -17 -3 -17 5 0 9 -21 8 -47 -1 -27 3 -54 9 -62 7 -11 7 -13 -2 -8 -14
9 -8 -80 13 -168 8 -33 17 -71 20 -85 16 -77 55 -205 63 -208 6 -2 7 -10 4
-18 -6 -16 26 -109 35 -100 7 7 32 -13 32 -26 0 -6 -7 -8 -14 -5 -10 4 -13 1
-9 -8 3 -8 10 -12 16 -8 5 3 7 1 4 -5 -10 -15 3 -43 16 -35 5 3 7 2 4 -3 -3
-6 -1 -16 4 -24 8 -13 10 -13 19 0 6 10 10 11 10 3 0 -7 5 -13 11 -13 5 0 7 5
4 10 -3 6 0 10 7 10 9 1 7 5 -4 14 -10 7 -18 19 -18 26 0 10 4 9 17 -1 11 -10
14 -10 9 -1 -4 6 -2 12 3 12 6 0 11 -5 11 -12 0 -6 3 -8 6 -5 4 4 2 12 -4 19
-5 7 -8 30 -7 51 2 20 0 35 -5 32 -5 -3 -11 -1 -14 4 -3 5 1 11 9 15 8 3 15 0
15 -7 0 -8 3 -8 9 2 6 9 11 10 15 2 4 -6 3 -11 -2 -11 -15 0 -20 -33 -10 -60
8 -23 10 -23 19 -7 6 9 16 17 24 17 8 0 12 6 10 13 -3 7 4 13 19 13 18 1 26
-5 31 -24 3 -14 14 -31 23 -38 14 -11 15 -16 5 -33 -10 -15 -10 -21 0 -25 9
-3 9 -7 1 -13 -8 -5 -3 -16 14 -33 l24 -25 -16 27 c-14 20 -14 27 -4 32 10 5
10 7 1 12 -10 4 -10 11 -2 26 8 15 8 22 -1 28 -7 4 -10 12 -6 18 7 12 -18 34
-29 24 -5 -4 -5 1 -2 10 4 11 0 19 -14 23 -10 4 -17 11 -13 16 3 6 13 8 21 5
8 -3 12 -2 9 2 -2 4 -1 14 5 22 7 12 9 10 9 -7 0 -12 5 -25 11 -28 6 -4 8 -13
5 -21 -3 -8 -1 -14 3 -14 5 0 11 6 14 13 5 13 36 -19 37 -38 0 -5 -4 -4 -9 4
-7 10 -10 11 -16 1 -5 -8 -1 -18 10 -27 28 -20 33 -16 30 27 -1 22 2 37 7 34
5 -3 8 -13 7 -22 -2 -29 0 -38 19 -58 10 -11 19 -26 19 -34 0 -8 4 -22 7 -31
5 -12 1 -18 -15 -22 -13 -4 -20 -9 -17 -12 3 -4 16 -1 29 5 19 11 21 10 16 -5
-4 -9 -7 -21 -7 -26 0 -6 -5 -7 -12 -3 -7 4 -8 3 -4 -4 10 -17 26 -15 26 4 0
14 3 14 15 4 18 -15 20 1 3 19 -11 10 -10 11 4 6 28 -11 28 -32 1 -44 -14 -7
-23 -15 -19 -18 3 -4 11 -2 17 4 6 6 18 9 27 6 12 -5 14 -1 10 21 -4 21 -2 26
9 22 8 -3 16 -6 19 -6 2 0 1 -7 -3 -16 -5 -14 -2 -14 23 2 27 17 28 17 15 1
-19 -24 -63 -45 -80 -39 -8 3 -11 0 -7 -7 4 -6 13 -11 21 -11 7 0 16 -6 19
-12 3 -7 4 -4 3 7 -1 15 4 20 21 19 13 0 22 5 22 13 0 12 3 11 16 -1 8 -9 21
-13 27 -9 8 5 8 2 0 -8 -10 -13 -10 -16 2 -16 8 0 15 7 15 16 0 11 3 12 11 4
8 -8 7 -17 -5 -34 -23 -33 -20 -49 4 -19 16 20 20 21 20 8 0 -11 5 -15 15 -12
8 4 15 1 15 -5 0 -6 -3 -10 -8 -10 -19 3 -33 -2 -27 -11 3 -5 12 -7 21 -3 8 3
14 2 13 -3 -4 -26 2 -35 21 -29 11 3 20 2 20 -4 0 -5 8 -12 18 -15 10 -4 19
-13 19 -21 0 -11 -4 -12 -11 -5 -19 19 -29 10 -11 -10 14 -16 20 -17 26 -8 6
10 12 7 24 -9 9 -12 22 -20 29 -17 9 3 17 -4 21 -18 8 -23 22 -38 39 -38 5 0
3 6 -3 13 -6 8 -8 17 -4 20 9 9 23 9 22 0 -2 -15 14 -53 22 -53 5 0 4 11 -1
25 -8 22 -7 25 13 25 14 0 18 -3 10 -8 -10 -6 -9 -13 3 -30 16 -23 34 -29 34
-11 0 5 -4 7 -10 4 -6 -4 -9 4 -8 19 2 24 13 26 13 3 1 -7 6 -11 12 -10 7 2
10 -9 8 -28 -3 -17 0 -27 5 -24 6 4 10 -2 10 -12 0 -15 2 -16 10 -3 8 12 10
12 10 -5 0 -17 2 -17 10 -5 8 13 10 12 10 -2 0 -10 5 -18 11 -18 6 0 9 7 5 15
-3 8 2 18 10 23 19 10 74 3 74 -10 0 -5 -4 -7 -9 -3 -12 7 -34 -32 -27 -48 3
-9 5 -9 5 0 1 6 9 9 20 6 12 -3 20 2 24 16 3 12 11 21 19 21 9 0 9 -3 2 -8
-13 -8 -15 -42 -2 -42 10 0 6 -23 -6 -31 -4 -4 -3 -10 3 -13 6 -4 11 -2 11 4
0 5 14 9 30 8 17 -1 29 -7 26 -13 -2 -6 5 -11 15 -11 11 0 19 4 19 9 0 4 6 2
14 -5 7 -7 11 -20 9 -28 -4 -13 -4 -13 6 0 6 9 7 18 1 24 -13 13 -13 29 -1 22
5 -4 12 0 14 6 3 7 6 3 6 -9 1 -12 6 -25 12 -28 6 -4 8 -13 5 -21 -3 -8 0 -14
8 -14 24 0 25 12 3 30 -18 15 -20 21 -9 41 11 22 12 22 7 2 -4 -15 1 -26 17
-37 31 -22 54 -20 73 7 12 17 17 19 24 9 6 -11 11 -10 25 3 9 9 16 12 16 5 0
-17 -23 -37 -38 -32 -6 2 -19 -3 -27 -11 -13 -14 -11 -15 22 -14 25 1 38 -3
40 -13 4 -13 3 -13 -6 0 -6 9 -11 10 -11 3 0 -6 6 -18 13 -25 8 -7 12 -19 9
-27 -3 -8 0 -11 7 -7 6 4 9 20 6 36 -3 19 0 30 11 34 8 3 12 10 9 16 -3 5 1
10 9 10 20 0 20 -5 -1 -26 -12 -12 -14 -19 -6 -21 7 -3 9 -12 6 -21 -3 -9 -3
-14 1 -10 4 3 9 14 11 25 6 30 7 29 14 -2 5 -21 2 -34 -9 -42 -9 -8 -11 -12
-3 -13 6 0 15 5 18 10 9 14 26 12 23 -2 -2 -7 2 -14 7 -16 6 -1 11 6 13 17 2
13 9 17 22 14 11 -3 17 -9 15 -13 -3 -5 9 -5 27 1 42 12 45 12 45 -5 0 -8 -8
-12 -21 -10 -12 3 -15 2 -8 -2 21 -10 13 -21 -13 -16 -14 2 -25 0 -25 -7 0 -5
7 -8 15 -5 8 4 22 1 30 -6 14 -11 14 -16 -1 -37 -8 -14 -13 -27 -10 -31 3 -3
6 0 6 6 0 7 6 12 14 12 22 0 27 28 8 46 -16 16 -15 17 10 12 15 -3 25 -1 22 3
-11 19 -12 49 -2 55 7 4 8 2 4 -4 -4 -7 -2 -12 3 -12 6 0 11 5 11 12 0 6 3 8
6 5 4 -4 1 -13 -6 -22 -7 -9 -9 -22 -5 -32 5 -10 8 -21 7 -25 -1 -4 5 -5 13
-2 8 4 15 1 15 -5 0 -6 7 -11 15 -11 8 0 15 -6 15 -14 0 -10 11 -14 36 -13 30
1 33 3 20 13 -9 6 -16 18 -16 25 0 8 -9 15 -20 16 -18 2 -19 0 -5 -13 15 -15
20 -34 9 -34 -3 0 -18 14 -34 32 -30 32 -31 48 -4 48 8 0 13 -4 10 -9 -3 -5 3
-11 14 -14 14 -4 22 2 29 22 l10 26 0 -25 c-1 -14 0 -28 1 -32 1 -5 3 -13 4
-20 0 -6 7 -13 14 -16 7 -2 12 2 11 9 -1 8 3 25 10 39 11 25 11 24 6 -5 -3
-16 -8 -38 -11 -47 -4 -12 0 -15 16 -11 11 3 20 0 20 -6 0 -6 -4 -11 -10 -11
-5 0 -10 -11 -10 -25 0 -19 5 -25 21 -25 11 0 17 5 14 10 -3 6 1 10 9 10 9 0
15 -3 15 -8 -4 -21 3 -24 15 -6 12 15 17 17 27 7 17 -17 40 -17 33 0 -3 8 2
14 11 14 8 0 15 -4 15 -8 0 -4 7 -10 16 -13 12 -4 15 -2 10 9 -4 10 1 15 15
15 11 0 18 -4 14 -9 -3 -5 0 -13 7 -18 27 -16 38 -11 38 17 0 16 5 32 10 35
10 6 7 -20 -5 -61 -5 -16 39 -56 55 -52 8 2 16 -11 20 -30 10 -42 20 -53 20
-20 0 53 -12 88 -31 88 -10 0 -21 5 -24 10 -4 6 8 9 30 8 32 -3 35 -5 30 -27
-6 -22 -5 -22 10 -7 20 19 27 20 43 4 9 -9 17 -7 35 10 13 12 27 22 33 22 5 0
0 -7 -10 -15 -19 -15 -19 -15 5 -16 28 -1 18 -5 -33 -14 -22 -3 -38 -12 -38
-19 0 -8 -7 -16 -15 -20 -19 -7 -19 -22 -1 -29 10 -4 13 -1 10 7 -3 8 7 24 23
36 23 18 29 19 31 7 2 -9 9 -14 18 -10 8 3 14 0 14 -7 0 -6 -4 -9 -9 -6 -5 3
-12 -1 -15 -10 -5 -12 -2 -15 10 -10 8 3 18 6 20 6 12 0 2 30 -13 39 -16 9
-16 10 3 11 27 0 38 -35 17 -56 -8 -8 -13 -17 -10 -20 8 -8 40 44 33 54 -3 6
3 12 14 15 11 3 20 1 20 -4 0 -5 -4 -9 -8 -9 -14 0 -10 -29 4 -34 8 -3 11 0 7
10 -3 10 0 12 10 8 8 -3 18 -1 21 4 3 6 15 8 25 5 10 -3 22 0 25 6 10 16 49
14 43 -2 -3 -8 1 -14 9 -14 10 0 12 7 8 20 -4 13 -2 17 5 13 6 -4 11 -22 11
-41 0 -27 4 -33 18 -32 18 1 18 3 3 28 -9 15 -13 30 -10 33 11 11 49 -7 55
-27 8 -25 56 -67 68 -60 5 3 -1 11 -14 18 l-23 12 24 17 c32 22 39 20 39 -9 0
-14 5 -25 11 -25 5 0 7 -4 4 -10 -3 -5 -1 -10 4 -10 6 0 11 4 11 9 0 5 10 11
21 14 16 4 20 12 17 29 -4 21 -1 23 31 22 19 0 37 -6 39 -13 3 -9 7 -9 18 0 8
7 18 9 21 5 4 -4 1 -11 -6 -15 -8 -5 -10 -14 -6 -21 4 -7 -4 -4 -19 5 -14 10
-26 22 -26 29 0 6 -7 3 -14 -6 -7 -10 -16 -15 -19 -11 -4 3 -7 1 -7 -6 0 -8 7
-10 21 -6 15 5 22 2 26 -14 6 -24 20 -26 46 -7 14 11 15 15 5 19 -8 4 -5 8 10
13 14 4 21 12 18 21 -4 11 -1 11 15 2 17 -9 21 -7 26 10 3 11 12 21 21 23 15
3 14 6 -4 24 l-22 22 24 -2 c15 0 22 -6 19 -14 -9 -23 27 4 87 66 32 33 55 62
51 66 -3 3 0 6 8 6 15 0 89 72 89 86 0 5 -5 1 -11 -8 -12 -22 -29 -23 -29 -2
0 18 -23 44 -39 44 -6 0 -11 -4 -11 -10 0 -5 5 -10 10 -10 6 0 10 -5 10 -11 0
-5 -10 -3 -22 5 -27 19 -54 21 -61 4 -4 -10 -6 -10 -6 0 -1 7 6 15 14 18 8 4
15 11 15 16 0 7 -5 7 -13 0 -7 -6 -23 -8 -36 -5 -21 5 -23 3 -16 -18 3 -13 3
-19 -2 -14 -4 6 -15 10 -23 10 -9 0 -14 7 -12 20 3 15 1 17 -8 8 -7 -6 -20 -9
-29 -6 -9 3 -12 1 -6 -4 6 -4 11 -15 13 -23 2 -12 -1 -11 -11 2 -8 10 -17 15
-21 11 -4 -4 -4 0 0 10 8 22 -5 22 -22 0 -12 -17 -13 -16 -23 7 -7 19 -10 20
-10 7 -1 -17 -2 -17 -17 -3 -17 18 -39 22 -29 6 3 -6 -1 -7 -9 -4 -9 3 -16 9
-16 13 0 5 -68 5 -120 -1 -8 -1 -34 1 -57 5 -30 5 -43 4 -43 -4 0 -7 -8 -6
-23 4 -14 9 -29 12 -37 7 -7 -5 -22 -3 -33 3 -15 9 -21 9 -24 0 -8 -22 -34 -2
-27 21 6 20 5 20 -20 -3 -25 -24 -26 -24 -26 -4 0 25 -42 36 -107 27 -27 -3
-43 -1 -43 6 0 6 -11 8 -23 6 -24 -4 -49 5 -48 18 1 3 -2 5 -6 4 -5 -2 -7 -9
-7 -15 1 -7 -2 -13 -7 -13 -5 0 -9 5 -9 10 0 6 -7 10 -15 10 -8 0 -15 5 -15
10 0 6 -5 10 -11 10 -6 0 -8 -8 -5 -17 5 -16 4 -16 -6 -3 -18 21 -96 41 -102
26 -3 -7 -5 -6 -5 2 -1 9 -6 10 -20 3 -16 -9 -17 -7 -13 16 5 25 3 26 -26 20
-17 -4 -33 -3 -36 1 -3 5 -28 8 -55 7 -37 -1 -51 3 -51 13 0 10 -8 12 -31 7
-22 -5 -29 -4 -25 4 4 6 2 11 -3 11 -6 0 -11 4 -11 9 0 4 12 7 28 4 25 -3 26
-3 4 6 -22 10 -52 5 -52 -8 0 -4 5 -12 12 -19 9 -9 8 -12 -4 -12 -23 0 -31 16
-19 38 13 25 2 37 -14 15 -11 -14 -15 -15 -28 -4 -9 7 -21 10 -26 7 -5 -4 -12
-2 -16 4 -4 6 -11 8 -16 4 -5 -3 -6 -11 -2 -17 4 -7 0 -6 -10 2 -9 7 -14 17
-11 22 3 5 -2 9 -10 9 -8 0 -21 8 -28 18 -15 21 -45 42 -34 24 5 -8 0 -12 -13
-12 -12 0 -21 5 -21 10 0 6 -3 9 -7 8 -5 -2 -9 2 -10 7 -1 6 6 8 15 7 14 -3
15 -1 4 9 -16 17 -65 20 -74 5 -5 -8 -8 -7 -8 2 0 6 -12 12 -26 12 -21 0 -24
3 -19 21 6 19 4 21 -19 17 -20 -4 -26 -1 -26 13 0 21 -15 25 -25 8 -5 -6 -12
-4 -20 7 -14 20 -45 27 -46 11 0 -7 -5 -1 -10 12 -6 16 -15 22 -28 18 -11 -3
-29 2 -40 10 -17 11 -21 11 -21 1 0 -10 -2 -10 -9 1 -5 8 -8 23 -6 34 3 13 0
17 -10 13 -10 -3 -12 0 -8 12 6 16 5 16 -14 0 -35 -31 -49 -21 -45 34 1 9 -5
19 -13 22 -8 3 -15 1 -15 -4 0 -6 -5 -10 -10 -10 -6 0 -9 3 -9 7 4 26 -2 43
-14 38 -6 -4 -1 3 13 14 17 14 20 21 10 21 -8 0 -27 6 -42 14 -23 12 -26 12
-21 0 3 -8 10 -14 16 -14 6 0 8 -2 5 -5 -10 -10 -58 15 -58 30 0 8 -9 15 -19
15 -20 0 -35 25 -25 41 3 5 -2 9 -10 9 -21 0 -77 50 -70 62 9 14 -59 39 -69
25 -5 -8 -7 -4 -4 10 4 16 1 20 -11 16 -11 -5 -13 -3 -6 8 5 8 9 21 9 29 0 8
4 21 9 29 7 11 5 13 -7 8 -11 -4 -17 -1 -17 8 0 7 8 16 18 18 9 3 -1 6 -23 7
-22 1 -32 4 -22 7 18 5 24 33 7 33 -5 0 -10 -4 -10 -9 0 -5 -7 -12 -16 -15
-11 -4 -15 -2 -11 8 3 8 3 17 -1 20 -3 4 -7 25 -8 49 -2 56 -2 57 -14 57 -5 0
-10 -7 -10 -15 0 -8 -8 -15 -17 -15 -14 0 -15 2 -4 9 7 5 10 14 7 20 -4 6 -4
11 1 10 28 -5 36 2 17 15 -15 11 -19 27 -20 70 0 31 3 56 8 56 4 0 8 -11 8
-24 0 -14 4 -27 9 -30 8 -5 4 64 -5 73 -2 2 1 12 7 23 6 11 8 22 5 25 -3 3
-12 -10 -21 -28 -13 -31 -15 -31 -10 -6 3 15 2 27 -3 27 -4 0 -8 9 -8 19 0 13
4 17 11 11 8 -7 11 3 9 31 -2 32 1 39 13 35 10 -4 13 -2 10 8 -3 8 -1 17 6 20
7 3 3 4 -8 3 -11 -1 -21 5 -23 16 -2 9 2 17 8 17 6 0 8 -4 5 -10 -3 -6 1 -7
10 -3 13 4 14 8 4 14 -10 6 -8 13 10 28 22 19 21 26 -1 22 -5 0 -8 3 -8 9 0 5
10 10 21 10 16 0 20 5 16 20 -3 11 -1 18 3 15 5 -3 16 5 24 17 11 15 12 24 5
29 -8 5 -8 8 0 13 14 9 14 46 0 46 -6 0 -3 7 6 17 13 13 18 14 25 3 6 -9 10
-7 15 9 4 13 4 25 2 28 -3 3 3 15 14 26 14 16 16 23 7 29 -7 4 -8 8 -2 8 5 0
15 -5 21 -11 9 -9 10 -6 6 11 -4 16 -3 21 5 16 7 -4 15 -1 18 8 3 8 12 12 19
10 7 -3 19 4 27 15 8 12 19 18 24 13 4 -4 2 1 -5 10 -7 9 -10 22 -6 29 5 8 1
9 -14 4 -13 -4 -21 -2 -21 5 0 6 5 8 12 4 8 -5 9 -2 5 9 -3 9 -2 19 3 22 4 3
10 1 12 -4 1 -5 9 -3 16 5 7 8 8 14 2 14 -5 0 -10 4 -10 10 0 5 6 7 13 5 6 -3
19 0 27 5 13 9 13 11 0 20 -15 9 -14 11 13 14 6 1 11 8 9 15 -2 8 3 11 13 8
15 -6 19 4 15 32 -2 13 0 13 16 0 16 -13 16 -12 6 8 -8 14 -9 24 -2 28 5 3 10
1 10 -6 0 -7 8 -5 20 6 12 10 18 25 16 32 -3 8 2 13 14 13 11 0 20 5 20 11 0
8 6 7 17 -2 9 -8 14 -9 10 -2 -4 6 0 19 9 27 8 9 11 16 5 16 -6 0 -11 5 -11
11 0 6 8 8 19 4 14 -4 22 3 34 27 14 28 17 30 23 14 6 -17 8 -16 20 5 7 13 23
27 36 30 12 3 22 11 21 17 -2 8 5 9 22 2 20 -8 27 -6 31 5 4 8 10 12 15 9 5
-3 9 2 9 11 0 9 -4 13 -10 10 -5 -3 -10 -1 -10 4 0 16 20 13 26 -4 4 -8 10
-15 16 -15 5 0 6 5 3 10 -3 6 1 10 11 10 12 0 15 6 11 21 -4 16 -3 18 8 9 8
-6 13 -17 11 -23 -1 -7 -1 -9 1 -4 3 4 10 7 17 7 8 0 25 12 39 26 l25 25 -4
-23 -5 -23 12 22 c9 18 16 20 36 12 19 -7 23 -6 21 8 -2 9 3 18 11 21 9 3 11
0 6 -8 -6 -9 -3 -9 14 -1 11 7 21 8 21 4 0 -4 4 -2 9 6 5 7 14 10 21 6 9 -6 9
-9 0 -15 -9 -6 -7 -11 7 -19 17 -9 20 -8 19 7 0 11 7 18 21 20 18 3 21 0 16
-14 -4 -12 -2 -15 8 -12 8 3 13 11 11 17 -3 17 18 13 24 -4 5 -13 9 -12 24 5
18 21 18 21 25 1 6 -21 32 -19 47 3 5 8 8 8 8 0 0 -7 9 -14 21 -17 15 -4 19
-2 15 9 -4 12 -2 12 15 4 20 -11 20 -11 -3 -31 -13 -11 -16 -17 -8 -13 8 4 23
14 33 22 15 13 17 13 17 0 0 -9 10 -18 23 -21 21 -6 21 -5 3 8 -10 7 -15 19
-11 24 7 12 65 11 65 -1 0 -4 6 -5 14 -2 17 6 36 -24 29 -46 -3 -9 0 -8 9 4
11 14 17 16 22 7 4 -6 16 -9 26 -6 11 3 20 0 24 -10 3 -8 12 -15 20 -15 7 0
16 -10 19 -21 4 -15 11 -20 22 -15 9 3 14 2 11 -3 -3 -5 3 -11 14 -14 11 -3
20 -1 20 4 0 5 10 9 22 9 21 0 21 0 2 -15 -16 -13 -16 -14 -1 -9 19 7 24 -11
5 -20 -7 -4 -3 -4 10 -2 12 2 30 -3 39 -12 15 -16 16 -15 11 6 -4 15 -2 22 5
19 7 -2 17 -22 22 -46 6 -23 14 -39 18 -35 4 4 4 18 0 32 -4 18 -3 23 6 17 7
-4 11 -18 8 -32 -2 -13 0 -22 6 -20 5 1 30 -17 55 -41 35 -34 42 -46 31 -53
-11 -6 -11 -9 -1 -9 19 0 26 28 11 48 -13 15 -12 16 4 3 12 -9 16 -24 14 -46
-3 -24 0 -32 8 -28 7 2 16 -1 20 -6 3 -6 11 -9 16 -5 5 3 16 0 25 -6 11 -10
12 -16 3 -27 -9 -11 -9 -17 1 -26 9 -9 11 -9 6 0 -3 6 -2 14 4 18 10 6 13 -5
11 -35 0 -10 1 -11 5 -2 8 17 27 15 21 -2 -4 -10 0 -12 15 -8 17 4 20 2 15
-12 -4 -10 -3 -15 3 -11 6 3 13 -1 16 -9 3 -9 12 -16 19 -16 8 0 17 -5 21 -11
4 -8 -1 -9 -17 -5 -21 6 -22 5 -8 -6 9 -7 19 -23 23 -36 4 -12 14 -22 21 -22
9 0 12 -6 9 -15 -5 -11 -2 -13 12 -8 12 4 15 3 9 -6 -4 -8 -21 -11 -44 -9 -20
3 -51 -1 -69 -9 -18 -7 -37 -11 -42 -8 -6 4 -10 0 -10 -8 0 -9 -12 -14 -35
-14 -39 0 -157 -51 -149 -65 3 -4 -2 -5 -11 -2 -8 4 -22 1 -30 -6 -8 -6 -19
-9 -24 -5 -6 3 -8 0 -5 -8 3 -10 -4 -17 -23 -22 -15 -5 -31 -8 -35 -7 -5 1 -7
-4 -5 -11 1 -6 -4 -11 -10 -10 -7 2 -13 -4 -13 -12 0 -8 -13 -21 -29 -29 -15
-8 -42 -31 -59 -50 -16 -19 -33 -32 -36 -29 -8 8 -36 -24 -36 -42 0 -9 -5 -13
-11 -10 -11 7 -49 -22 -49 -36 0 -5 -13 -22 -30 -37 -19 -19 -30 -40 -31 -58
0 -22 -2 -25 -8 -11 -6 15 -10 12 -26 -20 -10 -21 -20 -49 -21 -63 -2 -14 -12
-32 -22 -41 -11 -8 -23 -31 -27 -50 -4 -19 -18 -54 -30 -79 -21 -43 -32 -82
-41 -144 -2 -16 -6 -32 -9 -34 -3 -3 0 -11 5 -17 8 -9 6 -14 -5 -19 -8 -3 -15
-13 -15 -21 0 -9 4 -13 10 -10 11 7 2 -23 -13 -43 -11 -14 -16 -82 -5 -76 4 3
7 -8 6 -23 -1 -51 14 -158 24 -170 7 -9 7 -13 -1 -13 -6 0 -11 -5 -11 -11 0
-5 5 -7 10 -4 6 4 10 -10 10 -34 0 -25 5 -41 12 -41 6 0 8 -3 5 -7 -4 -3 -1
-13 5 -21 7 -8 13 -22 13 -31 0 -9 5 -16 10 -17 6 0 18 -4 28 -9 14 -6 15 -10
6 -22 -9 -11 -9 -17 1 -26 10 -9 11 -9 6 0 -9 17 9 17 26 1 35 -34 127 -85
161 -91 21 -3 51 -12 66 -20 22 -11 32 -12 42 -3 9 8 10 8 5 -1 -7 -13 9 -19
71 -28 23 -3 86 -14 140 -24 65 -13 102 -16 110 -9 13 11 115 7 124 -4 3 -4
33 -8 67 -9 34 -1 60 -5 57 -9 -2 -4 42 -8 98 -9 56 -1 170 -3 252 -5 108 -2
159 1 184 10 18 8 37 11 42 8 5 -3 9 0 9 5 0 6 5 10 11 8 6 -1 16 7 22 18 7
11 13 22 15 25 2 2 7 -2 12 -10 16 -25 86 140 110 260 27 131 23 220 -20 387
-74 287 -150 469 -379 918 -143 280 -211 395 -317 535 -128 169 -393 482 -503
593 -168 172 -348 320 -388 320 -7 0 -10 4 -7 9 3 4 -8 11 -25 14 -17 4 -31
11 -31 16 0 5 -4 7 -9 3 -5 -3 -12 -1 -16 4 -3 6 -12 8 -20 4 -8 -3 -15 0 -15
7 0 7 -7 10 -16 6 -8 -3 -25 -1 -37 5 -16 9 -22 9 -25 0 -2 -6 -10 -11 -18
-11 -9 0 -12 -4 -9 -10 3 -6 -1 -7 -10 -3 -13 5 -14 7 -3 14 9 6 8 9 -8 9 -11
0 -29 -7 -40 -15 -25 -19 -34 -19 -34 0 0 8 -5 15 -11 15 -5 0 -7 -4 -4 -10 3
-5 1 -10 -4 -10 -6 0 -11 5 -11 11 0 6 -7 8 -16 5 -8 -3 -24 -1 -35 5 -19 10
-19 9 -9 -10z m-600 -191 c0 -5 -7 -10 -16 -10 -8 0 -12 5 -9 10 3 6 10 10 16
10 5 0 9 -4 9 -10z m-160 -75 c-14 -17 -30 -20 -30 -4 0 5 5 7 10 4 6 -3 13 1
16 10 4 9 9 14 12 11 3 -3 -1 -12 -8 -21z m-134 -102 c-10 -10 -19 5 -10 18 6
11 8 11 12 0 2 -7 1 -15 -2 -18z m1352 -375 c-2 -6 -10 -14 -16 -16 -7 -2 -10
2 -6 12 7 18 28 22 22 4z m-148 -8 c0 -5 -2 -10 -4 -10 -3 0 -8 5 -11 10 -3 6
-1 10 4 10 6 0 11 -4 11 -10z m-1613 -52 c-3 -8 -6 -5 -6 6 -1 11 2 17 5 13 3
-3 4 -12 1 -19z m1263 18 c0 -3 -4 -8 -10 -11 -5 -3 -10 -1 -10 4 0 6 5 11 10
11 6 0 10 -2 10 -4z m780 -76 c0 -5 -4 -10 -10 -10 -5 0 -10 5 -10 10 0 6 5
10 10 10 6 0 10 -4 10 -10z m-2130 -64 c0 -3 -4 -8 -10 -11 -5 -3 -10 -1 -10
4 0 6 5 11 10 11 6 0 10 -2 10 -4z m0 -36 c0 -5 -2 -10 -4 -10 -3 0 -8 5 -11
10 -3 6 -1 10 4 10 6 0 11 -4 11 -10z m990 -30 c0 -5 -5 -10 -11 -10 -5 0 -7
5 -4 10 3 6 8 10 11 10 2 0 4 -4 4 -10z m-1050 -4 c0 -3 -4 -8 -10 -11 -5 -3
-10 -1 -10 4 0 6 5 11 10 11 6 0 10 -2 10 -4z m2390 -6 c0 -5 -5 -10 -11 -10
-5 0 -7 5 -4 10 3 6 8 10 11 10 2 0 4 -4 4 -10z m30 -14 c0 -3 -4 -8 -10 -11
-5 -3 -10 -1 -10 4 0 6 5 11 10 11 6 0 10 -2 10 -4z m-2470 -96 c0 -5 -4 -10
-10 -10 -5 0 -10 5 -10 10 0 6 5 10 10 10 6 0 10 -4 10 -10z m-22 -115 c-3 -3
-9 2 -12 12 -6 14 -5 15 5 6 7 -7 10 -15 7 -18z m-43 -195 c3 -6 -1 -7 -9 -4
-18 7 -21 14 -7 14 6 0 13 -4 16 -10z m2416 -433 c2 -85 5 -96 22 -101 10 -2
16 -9 12 -15 -3 -6 -2 -11 3 -11 5 0 24 -21 42 -47 19 -27 38 -49 42 -51 14
-6 9 -22 -7 -22 -8 0 -15 -4 -15 -9 0 -5 -21 -7 -47 -5 -27 2 -53 3 -59 4 -6
0 -17 13 -24 29 -7 18 -24 34 -41 40 -19 6 -29 17 -29 30 0 11 -8 25 -19 30
-21 12 -33 73 -20 106 10 26 35 59 84 110 49 51 53 46 56 -88z m-1776 -37 c3
-5 2 -10 -4 -10 -5 0 -13 5 -16 10 -3 6 -2 10 4 10 5 0 13 -4 16 -10z m2143
-27 c-1 -10 1 -24 5 -30 5 -7 4 -13 -2 -13 -5 0 -11 6 -14 13 -4 13 3 47 10
47 2 0 3 -8 1 -17z m-28 -54 c-7 -11 -9 -26 -7 -34 10 -24 -19 -85 -52 -109
-28 -21 -36 -23 -67 -13 -19 6 -33 15 -31 20 6 19 142 156 155 157 10 0 10 -5
2 -21z m-2090 -74 c14 -16 10 -18 -14 -9 -9 3 -16 10 -16 15 0 14 16 11 30 -6z
m-132 -78 c8 3 12 -6 13 -26 2 -43 3 -48 12 -57 12 -12 8 -24 -8 -24 -9 0 -18
6 -21 14 -3 8 -14 16 -25 19 -24 6 -40 46 -27 70 6 12 14 15 26 8 9 -4 23 -6
30 -4z m154 -39 c-7 -7 -12 -8 -12 -2 0 14 12 26 19 19 2 -3 -1 -11 -7 -17z
m-1 -41 c-10 -9 -11 -8 -5 6 3 10 9 15 12 12 3 -3 0 -11 -7 -18z m-114 -43
c-3 -3 -12 -4 -19 -1 -8 3 -5 6 6 6 11 1 17 -2 13 -5z m-263 -28 c-3 -9 -10
-13 -15 -10 -5 3 -3 11 4 19 15 16 19 13 11 -9z m436 14 c0 -5 -5 -10 -11 -10
-5 0 -7 5 -4 10 3 6 8 10 11 10 2 0 4 -4 4 -10z m-350 -29 c0 -5 9 -7 20 -4
13 4 26 -1 34 -12 11 -16 14 -16 29 -1 15 16 34 6 23 -13 -3 -5 6 -8 19 -8 19
0 25 5 25 21 1 19 1 20 11 3 6 -10 8 -26 4 -35 -5 -14 -4 -15 6 -4 16 15 55
16 64 1 4 -6 13 -8 19 -6 7 3 18 -3 24 -14 10 -15 9 -17 -6 -12 -13 4 -13 3 3
-10 15 -11 22 -12 27 -4 5 8 8 6 8 -5 0 -11 5 -15 15 -12 9 4 15 0 15 -10 0
-13 -9 -15 -52 -10 -29 3 -61 6 -70 7 -12 1 -16 7 -13 19 8 22 -33 47 -46 27
-4 -7 -5 -17 -3 -21 3 -4 -2 -8 -11 -8 -9 0 -13 5 -10 10 10 16 -15 42 -29 32
-6 -5 -19 -12 -30 -16 -14 -5 -17 -2 -12 9 3 8 1 15 -4 15 -6 0 -10 -9 -10
-19 0 -11 -4 -23 -10 -26 -6 -4 -7 1 -3 12 5 15 3 16 -8 6 -16 -16 -39 -17
-39 -2 0 6 7 9 15 5 8 -3 15 -1 15 4 0 9 -22 14 -42 11 -12 -2 -10 27 2 34 6
3 13 -1 16 -9 7 -17 44 -22 44 -6 0 13 -31 28 -52 25 -20 -4 -20 -3 -12 19 7
17 24 22 24 7z m-126 -36 c5 -22 4 -26 -4 -15 -5 8 -10 24 -10 34 0 26 6 18
14 -19z m84 4 c0 -15 -5 -30 -12 -32 -9 -4 -11 2 -8 20 3 15 -1 29 -9 34 -10
6 -8 8 7 7 16 -2 21 -9 22 -29z m-47 -6 c13 -16 12 -17 -3 -4 -10 7 -18 15
-18 17 0 8 8 3 21 -13z m114 -11 c-3 -3 -11 0 -18 7 -9 10 -8 11 6 5 10 -3 15
-9 12 -12z m-135 -26 c0 -3 -4 -8 -10 -11 -5 -3 -10 -1 -10 4 0 6 5 11 10 11
6 0 10 -2 10 -4z m99 -37 c13 -39 14 -49 1 -29 -8 12 -10 12 -11 -5 0 -11 -3
-15 -5 -8 -3 7 -11 10 -19 7 -7 -3 -15 2 -17 13 -12 56 32 75 51 22z m460 12
c7 -5 12 -14 10 -20 -3 -7 -11 -3 -21 9 -18 21 -13 26 11 11z m-559 -6 c0 -2
-10 -10 -22 -16 -21 -11 -22 -11 -9 4 13 16 31 23 31 12z m240 -15 c8 -5 11
-10 5 -10 -5 0 -17 5 -25 10 -8 5 -10 10 -5 10 6 0 17 -5 25 -10z m-296 -9 c3
-5 0 -14 -7 -19 -10 -8 -13 -6 -14 9 -2 19 11 26 21 10z m530 -7 c3 -8 2 -12
-4 -9 -6 3 -10 10 -10 16 0 14 7 11 14 -7z m-259 -4 c3 -5 2 -10 -4 -10 -5 0
-13 5 -16 10 -3 6 -2 10 4 10 5 0 13 -4 16 -10z m310 -33 c-6 -20 -5 -21 8 -4
17 21 41 23 33 2 -3 -8 -1 -15 4 -15 6 0 10 5 10 10 0 6 5 10 10 10 6 0 10 -4
10 -10 0 -17 33 -48 46 -43 7 2 17 -4 23 -16 6 -11 19 -22 30 -26 25 -8 35
-54 11 -48 -12 3 -16 11 -12 26 4 15 1 19 -9 15 -50 -21 -52 -21 -45 -10 4 7
2 12 -4 12 -6 0 -9 4 -5 9 9 16 -15 24 -31 10 -11 -9 -18 -9 -32 3 -9 9 -24
13 -32 10 -11 -4 -10 -1 3 12 16 17 23 36 12 36 -3 0 -14 -6 -25 -12 -15 -10
-23 -10 -28 -2 -4 6 -17 15 -30 19 -27 8 -22 17 11 22 12 2 24 8 25 13 7 20
23 -2 17 -23z m-675 3 c0 -5 -2 -10 -4 -10 -3 0 -8 5 -11 10 -3 6 -1 10 4 10
6 0 11 -4 11 -10z m80 -6 c0 -2 -7 -4 -15 -4 -8 0 -15 4 -15 10 0 5 7 7 15 4
8 -4 15 -8 15 -10z m226 -19 c-7 -18 5 -20 22 -3 9 9 12 8 12 -6 0 -9 -4 -15
-9 -11 -6 3 -14 -3 -20 -12 -10 -17 -10 -17 -11 0 0 11 -5 15 -11 11 -8 -4 -8
0 0 15 13 24 26 29 17 6z m-316 -14 c0 -6 -4 -13 -10 -16 -5 -3 -10 1 -10 9 0
9 5 16 10 16 6 0 10 -4 10 -9z m930 -86 c0 -26 -14 -33 -25 -15 -9 14 1 40 15
40 5 0 10 -11 10 -25z m-509 -8 c-10 -9 -11 -8 -5 6 3 10 9 15 12 12 3 -3 0
-11 -7 -18z m-59 -11 c7 4 8 2 4 -5 -10 -15 -26 -4 -25 17 1 15 2 15 6 -1 2
-9 9 -14 15 -11z m45 -12 c-3 -3 -12 -4 -19 -1 -8 3 -5 6 6 6 11 1 17 -2 13
-5z m583 -21 c0 -5 -7 -17 -15 -27 -15 -20 -15 -20 -15 0 0 12 3 24 7 27 9 9
23 9 23 0z m-490 -39 c0 -8 -5 -12 -10 -9 -6 4 -8 11 -5 16 9 14 15 11 15 -7z
m547 -20 c-3 -3 -12 -4 -19 -1 -8 3 -5 6 6 6 11 1 17 -2 13 -5z m-467 -34 c0
-5 -2 -10 -4 -10 -3 0 -8 5 -11 10 -3 6 -1 10 4 10 6 0 11 -4 11 -10z m66 -44
c16 3 24 0 24 -9 0 -9 -9 -12 -30 -9 -20 3 -30 10 -29 21 0 9 3 11 5 4 3 -6
16 -9 30 -7z m13 -48 c11 -17 10 -18 -8 -9 -25 14 -34 28 -17 28 7 0 19 -9 25
-19z m631 -8 c12 -23 12 -24 -3 -11 -10 7 -17 20 -17 29 0 18 3 16 20 -18z
m30 10 c0 -5 -4 -10 -10 -10 -5 0 -10 5 -10 10 0 6 5 10 10 10 6 0 10 -4 10
-10z m-410 -26 c0 -8 -19 -13 -24 -6 -3 5 1 9 9 9 8 0 15 -2 15 -3z m-220 -14
c0 -5 7 -10 16 -10 8 0 13 -3 11 -7 -3 -5 6 -9 20 -9 29 -2 37 -8 31 -25 -3
-8 -9 -6 -22 6 -12 13 -20 15 -28 7 -8 -8 -16 -4 -29 13 -21 26 -24 35 -9 35
6 0 10 -4 10 -10z m50 0 c0 -5 -4 -10 -10 -10 -5 0 -10 5 -10 10 0 6 5 10 10
10 6 0 10 -4 10 -10z m44 -16 c6 -15 4 -15 -11 -3 -10 7 -20 15 -22 16 -2 2 3
3 11 3 9 0 19 -7 22 -16z m116 -8 c0 -2 -8 -10 -17 -17 -16 -13 -17 -12 -4 4
13 16 21 21 21 13z m-67 -31 c-6 -17 -23 -20 -23 -5 0 6 5 10 11 10 5 0 7 5 3
12 -4 7 -3 8 4 4 6 -4 9 -13 5 -21z m62 -17 c5 4 5 1 1 -6 -6 -10 -11 -10 -22
-1 -8 6 -14 14 -14 16 0 3 6 0 13 -6 8 -6 18 -7 22 -3z m635 -13 c0 -8 -5 -15
-11 -15 -5 0 -8 4 -4 9 3 5 -3 12 -12 14 -14 4 -13 5 5 6 13 1 22 -5 22 -14z
m-611 -49 c-9 -8 -10 -7 -5 7 3 10 7 26 7 35 1 9 4 6 6 -7 3 -13 -1 -28 -8
-35z m271 44 c0 -5 -5 -10 -11 -10 -5 0 -7 5 -4 10 3 6 8 10 11 10 2 0 4 -4 4
-10z m-60 -36 c0 -2 -9 -4 -20 -4 -11 0 -20 4 -20 9 0 5 9 7 20 4 11 -3 20 -7
20 -9z m537 -26 c-3 -7 -5 -2 -5 12 0 14 2 19 5 13 2 -7 2 -19 0 -25z m158
-38 c-3 -5 -12 -10 -18 -10 -7 0 -6 4 3 10 19 12 23 12 15 0z m66 -5 c1 -17
-18 -17 -25 0 -4 11 -1 15 10 13 8 -2 15 -7 15 -13z m56 -1 c-3 -3 -12 -4 -19
-1 -8 3 -5 6 6 6 11 1 17 -2 13 -5z m-92 -14 c3 -6 -1 -7 -9 -4 -18 7 -21 14
-7 14 6 0 13 -4 16 -10z m-685 -26 c0 -2 -7 -4 -15 -4 -8 0 -15 4 -15 10 0 5
7 7 15 4 8 -4 15 -8 15 -10z m115 -13 c-6 -5 -25 10 -25 20 0 5 6 4 14 -3 8
-7 12 -15 11 -17z m698 4 c-7 -21 -12 -19 -10 4 0 11 5 18 9 15 4 -3 5 -11 1
-19z m-766 9 c-3 -3 -12 -4 -19 -1 -8 3 -5 6 6 6 11 1 17 -2 13 -5z m-87 -14
c0 -5 -10 -10 -22 -9 -22 0 -22 1 -3 9 11 5 21 9 23 9 1 1 2 -3 2 -9z m40 -10
c0 -5 -4 -10 -10 -10 -5 0 -10 5 -10 10 0 6 5 10 10 10 6 0 10 -4 10 -10z
m128 -45 c-3 -3 -9 2 -12 12 -6 14 -5 15 5 6 7 -7 10 -15 7 -18z m202 -10 c0
-2 -7 -5 -15 -9 -9 -3 -15 0 -15 9 0 9 6 12 15 9 8 -4 15 -7 15 -9z m15 -44
c-6 -5 -25 10 -25 20 0 5 6 4 14 -3 8 -7 12 -15 11 -17z m35 14 c0 -12 -19
-12 -23 0 -4 9 -1 12 9 8 7 -3 14 -7 14 -8z m114 -1 c3 -8 2 -12 -4 -9 -6 3
-10 10 -10 16 0 14 7 11 14 -7z m1131 6 c3 -5 -1 -10 -9 -10 -8 0 -18 5 -21
10 -3 6 1 10 9 10 8 0 18 -4 21 -10z m-1195 -37 c0 -8 -5 -11 -10 -8 -6 4 -8
11 -5 16 4 5 1 9 -4 9 -6 0 -11 5 -11 11 0 8 5 8 15 -1 8 -7 15 -19 15 -27z
m1530 -38 c-7 -9 -15 -13 -18 -10 -3 2 1 11 8 20 7 9 15 13 18 10 3 -2 -1 -11
-8 -20z m-1420 11 c0 -3 -4 -8 -10 -11 -5 -3 -10 -1 -10 4 0 6 5 11 10 11 6 0
10 -2 10 -4z m1250 -16 c0 -5 -4 -10 -10 -10 -5 0 -10 5 -10 10 0 6 5 10 10
10 6 0 10 -4 10 -10z m-1020 -14 c-7 -7 -14 -6 -21 1 -9 9 -7 12 9 10 14 -1
18 -5 12 -11z m1135 -6 c3 -5 1 -10 -4 -10 -6 0 -11 5 -11 10 0 6 2 10 4 10 3
0 8 -4 11 -10z m-1229 -26 c-4 -9 -9 -15 -11 -12 -3 3 -3 13 1 22 4 9 9 15 11
12 3 -3 3 -13 -1 -22z m64 15 c0 -6 7 -9 15 -5 8 3 15 2 15 -3 0 -5 -18 -8
-40 -7 -36 1 -39 2 -23 13 21 16 33 17 33 2z m105 2 c3 -5 -1 -15 -8 -23 -8
-7 -12 -19 -11 -26 1 -7 0 -8 -3 -2 -2 5 -9 7 -15 4 -6 -4 -5 2 1 15 7 11 17
21 24 21 7 0 6 4 -3 10 -9 6 -10 10 -3 10 6 0 14 -4 18 -9z m45 -41 c0 -4 -7
-11 -16 -14 -8 -3 -12 -2 -9 4 3 6 0 10 -7 10 -10 0 -9 3 2 9 15 10 30 6 30
-9z m-180 0 c0 -5 8 -10 18 -11 14 0 14 -2 -3 -9 -11 -5 -15 -9 -10 -9 6 -1 3
-6 -5 -11 -13 -9 -13 -10 0 -10 8 -1 4 -6 -9 -11 -29 -11 -38 -5 -22 15 7 8
10 20 6 26 -3 5 -1 10 5 10 6 0 8 5 5 10 -3 6 -1 10 4 10 6 0 11 -4 11 -10z
m1220 -4 c0 -2 -7 -6 -15 -10 -8 -3 -15 -1 -15 4 0 6 7 10 15 10 8 0 15 -2 15
-4z m-1141 -33 c2 -2 -3 -3 -11 -3 -9 0 -19 7 -22 16 -6 15 -4 15 11 3 10 -7
20 -15 22 -16z m-46 -8 c-3 -9 -8 -14 -10 -11 -3 3 -2 9 2 15 9 16 15 13 8 -4z
m81 7 c3 -5 -1 -9 -9 -9 -8 0 -12 4 -9 9 3 4 7 8 9 8 2 0 6 -4 9 -8z m1057 -9
c13 -16 12 -17 -3 -4 -10 7 -18 15 -18 17 0 8 8 3 21 -13z m-204 -19 c-3 -3
-12 -4 -19 -1 -8 3 -5 6 6 6 11 1 17 -2 13 -5z m-33 -20 c3 -8 2 -12 -4 -9 -6
3 -10 10 -10 16 0 14 7 11 14 -7z m83 -6 c-3 -8 -6 -5 -6 6 -1 11 2 17 5 13 3
-3 4 -12 1 -19z m37 7 c-7 -16 -24 -21 -24 -6 0 8 7 13 27 20 1 1 0 -6 -3 -14z
m-159 -15 c-3 -5 -12 -10 -18 -10 -7 0 -6 4 3 10 19 12 23 12 15 0z m56 -13
c-10 -9 -11 -8 -5 6 3 10 9 15 12 12 3 -3 0 -11 -7 -18z m-337 -2 c-4 -8 -10
-15 -15 -15 -4 0 -6 7 -3 15 4 8 10 15 15 15 4 0 6 -7 3 -15z m146 0 c0 -8 -2
-15 -4 -15 -2 0 -6 7 -10 15 -3 8 -1 15 4 15 6 0 10 -7 10 -15z m65 -5 c3 -5
2 -10 -4 -10 -6 0 -8 -7 -5 -15 4 -8 10 -13 14 -10 10 6 25 -14 17 -21 -13
-13 -47 18 -45 41 2 26 12 32 23 15z m-545 -4 c0 -2 -7 -7 -16 -10 -8 -3 -12
-2 -9 4 6 10 25 14 25 6z m782 -28 c-5 -19 -7 -20 -10 -5 -4 19 -22 24 -22 5
0 -6 -3 -9 -6 -5 -10 10 6 27 26 27 14 0 17 -5 12 -22z m-477 2 c3 -5 1 -10
-4 -10 -6 0 -11 5 -11 10 0 6 2 10 4 10 3 0 8 -4 11 -10z m205 -11 c0 -13 -4
-18 -12 -13 -7 4 -8 3 -4 -4 4 -7 4 -17 1 -23 -4 -6 -13 1 -21 16 -18 34 -18
38 1 32 8 -4 17 -2 20 3 10 16 15 12 15 -11z m99 4 c-6 -6 -9 -22 -7 -34 2
-17 -2 -23 -19 -24 -27 -2 -29 7 -7 30 9 8 14 21 11 28 -3 7 3 13 14 13 13 0
15 -4 8 -13z m71 11 c0 -8 -19 -13 -24 -6 -3 5 1 9 9 9 8 0 15 -2 15 -3z"/>
<path d="M807 1419 c7 -7 15 -10 18 -7 3 3 -2 9 -12 12 -14 6 -15 5 -6 -5z"/>
<path d="M530 1405 c0 -9 6 -12 15 -9 8 4 15 7 15 9 0 2 -7 5 -15 9 -9 3 -15
0 -15 -9z"/>
<path d="M1040 1303 c0 -5 5 -15 10 -23 8 -12 10 -11 10 8 0 12 -4 22 -10 22
-5 0 -10 -3 -10 -7z"/>
<path d="M1120 1249 c0 -5 5 -7 10 -4 6 3 10 8 10 11 0 2 -4 4 -10 4 -5 0 -10
-5 -10 -11z"/>
<path d="M1850 3809 c0 -5 5 -7 10 -4 6 3 10 8 10 11 0 2 -4 4 -10 4 -5 0 -10
-5 -10 -11z"/>
<path d="M1386 3753 c-6 -14 -5 -15 5 -6 7 7 10 15 7 18 -3 3 -9 -2 -12 -12z"/>
<path d="M1240 3670 c0 -5 5 -10 10 -10 6 0 10 5 10 10 0 6 -4 10 -10 10 -5 0
-10 -4 -10 -10z"/>
<path d="M1945 3000 c-3 -6 1 -7 9 -4 18 7 21 14 7 14 -6 0 -13 -4 -16 -10z"/>
<path d="M2266 3000 c-19 -6 -19 -7 2 -12 12 -4 24 -2 27 2 8 13 -8 18 -29 10z"/>
<path d="M300 2890 c0 -5 5 -10 10 -10 6 0 10 5 10 10 0 6 -4 10 -10 10 -5 0
-10 -4 -10 -10z"/>
<path d="M2660 2759 c0 -5 5 -7 10 -4 6 3 10 8 10 11 0 2 -4 4 -10 4 -5 0 -10
-5 -10 -11z"/>
<path d="M180 2639 c0 -5 5 -7 10 -4 6 3 10 8 10 11 0 2 -4 4 -10 4 -5 0 -10
-5 -10 -11z"/>
<path d="M2798 2643 c7 -3 16 -2 19 1 4 3 -2 6 -13 5 -11 0 -14 -3 -6 -6z"/>
<path d="M150 2529 c0 -5 5 -7 10 -4 6 3 10 8 10 11 0 2 -4 4 -10 4 -5 0 -10
-5 -10 -11z"/>
<path d="M875 1970 c3 -5 8 -10 11 -10 2 0 4 5 4 10 0 6 -5 10 -11 10 -5 0 -7
-4 -4 -10z"/>
<path d="M917 1639 c7 -7 15 -10 18 -7 3 3 -2 9 -12 12 -14 6 -15 5 -6 -5z"/>
<path d="M986 1505 c-3 -8 -1 -15 4 -15 6 0 10 7 10 15 0 8 -2 15 -4 15 -2 0
-6 -7 -10 -15z"/>
<path d="M1151 1324 c0 -11 3 -14 6 -6 3 7 2 16 -1 19 -3 4 -6 -2 -5 -13z"/>
<path d="M404 1302 c-8 -5 -8 -17 1 -42 l12 -34 6 33 c6 30 9 32 24 20 14 -12
16 -12 11 1 -2 8 -11 15 -19 15 -8 0 -16 3 -19 7 -3 4 -10 4 -16 0z"/>
<path d="M365 1249 c-9 -17 -14 -33 -11 -37 3 -3 6 0 6 7 0 8 8 10 23 6 15 -4
18 -3 8 3 -8 6 -11 18 -6 31 10 31 -2 26 -20 -10z"/>
<path d="M565 1233 c-8 -8 -15 -19 -15 -25 0 -6 3 -8 7 -5 3 4 12 2 19 -4 16
-13 37 -2 30 17 -3 8 0 14 6 14 6 0 8 3 4 7 -13 13 -36 11 -51 -4z m20 -13 c3
-5 1 -10 -4 -10 -6 0 -11 5 -11 10 0 6 2 10 4 10 3 0 8 -4 11 -10z"/>
<path d="M300 1190 c0 -5 6 -10 14 -10 8 0 17 -6 19 -12 4 -10 6 -10 6 -1 1 7
-8 17 -19 23 -14 7 -20 7 -20 0z"/>
<path d="M567 1179 c7 -7 15 -10 18 -7 3 3 -2 9 -12 12 -14 6 -15 5 -6 -5z"/>
<path d="M353 1125 c-7 -8 -9 -16 -4 -20 5 -3 12 1 14 7 4 10 8 9 16 -2 6 -8
11 -10 11 -4 0 21 -24 33 -37 19z"/>
<path d="M563 1097 c0 -12 1 -16 4 -9 3 6 16 12 31 12 30 0 27 5 -8 13 -22 5
-26 3 -27 -16z"/>
<path d="M610 1081 c0 -5 7 -12 16 -15 24 -9 27 -7 10 9 -17 17 -26 19 -26 6z"/>
<path d="M666 1077 c3 -10 9 -15 12 -12 3 3 0 11 -7 18 -10 9 -11 8 -5 -6z"/>
<path d="M781 1074 c0 -11 3 -14 6 -6 3 7 2 16 -1 19 -3 4 -6 -2 -5 -13z"/>
<path d="M801 1053 c-1 -7 -8 -10 -18 -6 -10 4 -14 2 -10 -4 4 -6 1 -14 -5
-17 -7 -3 -2 -3 12 0 31 8 33 10 27 26 -4 9 -6 9 -6 1z"/>
<path d="M604 1039 c-3 -6 -2 -15 3 -20 5 -5 9 -1 9 11 0 23 -2 24 -12 9z"/>
<path d="M714 1029 c0 -13 3 -15 13 -7 7 6 13 12 13 13 0 2 -6 5 -13 8 -7 3
-13 -3 -13 -14z"/>
<path d="M756 995 c-3 -8 -1 -15 4 -15 13 0 22 18 11 24 -5 3 -11 -1 -15 -9z"/>
<path d="M824 998 c-4 -7 -3 -8 4 -4 8 5 12 -1 12 -14 0 -13 -4 -19 -12 -14
-7 4 -8 3 -4 -5 14 -21 38 7 25 30 -11 22 -15 23 -25 7z"/>
<path d="M865 970 c2 -29 10 -33 13 -5 1 14 -2 25 -6 25 -5 0 -8 -9 -7 -20z"/>
<path d="M890 950 c0 -6 4 -9 9 -6 5 4 12 1 14 -4 3 -6 4 -5 3 2 -3 15 -26 23
-26 8z"/>
<path d="M879 909 c14 -5 28 -6 33 -1 4 4 -7 9 -25 9 -30 2 -31 2 -8 -8z"/>
<path d="M1847 903 c-8 -12 30 -29 40 -19 4 3 -1 6 -9 6 -9 0 -18 5 -20 12 -3
9 -6 9 -11 1z"/>
<path d="M1905 881 c-3 -2 0 -10 6 -17 8 -10 16 -11 30 -3 18 9 23 5 20 -14
-1 -5 3 -6 9 -2 22 14 9 33 -25 37 -20 2 -38 2 -40 -1z"/>
<path d="M1000 849 c0 -5 5 -7 10 -4 6 3 10 8 10 11 0 2 -4 4 -10 4 -5 0 -10
-5 -10 -11z"/>
<path d="M1141 783 c-1 -18 13 -23 29 -11 12 8 12 9 -2 5 -9 -3 -19 -1 -22 6
-3 9 -5 9 -5 0z"/>
<path d="M1290 750 c-8 -5 -10 -10 -5 -10 6 0 3 -4 -5 -10 -8 -5 -11 -12 -8
-15 9 -9 26 2 38 26 12 21 4 24 -20 9z"/>
<path d="M1160 706 c0 -2 9 -6 20 -9 11 -3 18 -1 14 4 -5 9 -34 13 -34 5z"/>
<path d="M1333 686 c-10 -11 -9 -15 3 -20 9 -3 12 -1 9 4 -3 6 1 10 9 10 9 0
16 5 16 10 0 14 -23 12 -37 -4z"/>
<path d="M2788 693 c7 -3 16 -2 19 1 4 3 -2 6 -13 5 -11 0 -14 -3 -6 -6z"/>
<path d="M1261 676 c-7 -8 -8 -17 -3 -20 6 -3 13 1 16 10 9 23 2 28 -13 10z"/>
<path d="M3315 590 c-3 -5 -1 -10 4 -10 6 0 11 5 11 10 0 6 -2 10 -4 10 -3 0
-8 -4 -11 -10z"/>
<path d="M1571 574 c0 -11 3 -14 6 -6 3 7 2 16 -1 19 -3 4 -6 -2 -5 -13z"/>
<path d="M1652 578 c-16 -16 -15 -25 4 -32 11 -4 15 -2 11 8 -3 8 -1 16 6 19
7 2 8 5 1 10 -6 3 -16 1 -22 -5z"/>
<path d="M1700 500 c0 -5 7 -7 15 -4 8 4 15 8 15 10 0 2 -7 4 -15 4 -8 0 -15
-4 -15 -10z"/>
<path d="M1776 493 c-6 -14 -5 -15 5 -6 7 7 10 15 7 18 -3 3 -9 -2 -12 -12z"/>
<path d="M1830 475 c-7 -9 -8 -15 -2 -15 5 0 12 7 16 15 3 8 4 15 2 15 -2 0
-9 -7 -16 -15z"/>
<path d="M1985 440 c-3 -5 -1 -10 4 -10 6 0 11 5 11 10 0 6 -2 10 -4 10 -3 0
-8 -4 -11 -10z"/>
<path d="M2110 390 c0 -19 3 -21 12 -12 9 9 9 15 0 24 -9 9 -12 7 -12 -12z"/>
<path d="M2216 345 c-9 -26 -7 -32 5 -12 6 10 9 21 6 23 -2 3 -7 -2 -11 -11z"/>
<path d="M2246 333 c-4 -9 -4 -18 -1 -21 3 -3 5 0 5 6 0 7 5 12 11 12 5 0 7
-4 4 -10 -3 -5 -1 -10 4 -10 16 0 13 27 -3 33 -8 3 -17 -1 -20 -10z"/>
<path d="M2300 343 c0 -1 9 -7 19 -12 14 -8 20 -7 25 4 4 11 -1 14 -19 13 -14
-1 -25 -3 -25 -5z"/>
<path d="M2302 306 c7 -8 15 -12 17 -11 5 6 -10 25 -20 25 -5 0 -4 -6 3 -14z"/>
<path d="M2390 290 c0 -11 4 -20 9 -20 6 0 9 9 8 20 -1 11 -5 20 -9 20 -4 0
-8 -9 -8 -20z"/>
<path d="M2574 268 c0 -13 5 -28 12 -35 9 -9 11 -5 10 19 -2 36 -22 50 -22 16z"/>
<path d="M2795 280 c3 -5 8 -10 11 -10 2 0 4 5 4 10 0 6 -5 10 -11 10 -5 0 -7
-4 -4 -10z"/>
<path d="M2717 244 c-16 -19 -24 -34 -18 -34 6 0 11 4 11 10 0 6 9 6 26 0 16
-7 23 -7 19 0 -3 6 -14 10 -23 10 -12 0 -13 3 -4 12 9 9 16 7 31 -6 16 -14 23
-15 41 -6 20 11 21 10 15 -9 -4 -14 -2 -21 7 -21 8 0 13 12 13 30 1 30 -5 37
-19 23 -14 -15 -35 -11 -29 5 5 14 3 15 -7 5 -11 -10 -16 -9 -24 1 -9 11 -17
7 -39 -20z"/>
<path d="M2895 260 c10 -11 20 -18 23 -15 7 6 -18 35 -31 35 -5 0 -2 -9 8 -20z"/>
<path d="M2655 230 c-3 -5 -1 -10 4 -10 6 0 11 5 11 10 0 6 -2 10 -4 10 -3 0
-8 -4 -11 -10z"/>
<path d="M2916 215 c4 -8 10 -15 15 -15 5 0 9 7 9 15 0 8 -7 15 -15 15 -9 0
-12 -6 -9 -15z"/>
<path d="M2855 210 c-3 -6 1 -7 9 -4 18 7 21 14 7 14 -6 0 -13 -4 -16 -10z"/>
<path d="M3090 204 c0 -19 42 -16 46 4 1 7 0 8 -3 2 -2 -5 -11 -10 -19 -10 -9
0 -12 5 -9 10 3 6 1 10 -4 10 -6 0 -11 -7 -11 -16z"/>
<path d="M2481 196 c-7 -8 -8 -17 -3 -20 6 -3 13 1 16 10 9 23 2 28 -13 10z"/>
<path d="M2790 180 c-9 -6 -10 -10 -3 -10 6 0 15 5 18 10 8 12 4 12 -15 0z"/>
<path d="M2850 180 c0 -5 7 -10 16 -10 8 0 12 5 9 10 -3 6 -10 10 -16 10 -5 0
-9 -4 -9 -10z"/>
<path d="M2920 180 c0 -5 5 -10 10 -10 6 0 10 5 10 10 0 6 -4 10 -10 10 -5 0
-10 -4 -10 -10z"/>
<path d="M2983 173 c-3 -10 -7 -21 -9 -24 -2 -3 2 -6 9 -6 7 0 13 11 13 24 2
27 -4 30 -13 6z"/>
<path d="M3075 174 c9 -9 19 -13 23 -10 3 4 0 11 -8 16 -24 15 -33 11 -15 -6z"/>
<path d="M2890 170 c0 -5 5 -10 11 -10 5 0 7 5 4 10 -3 6 -8 10 -11 10 -2 0
-4 -4 -4 -10z"/>
<path d="M3032 160 c-16 -27 -15 -30 8 -27 25 4 38 17 17 17 -10 0 -14 5 -11
15 9 21 1 19 -14 -5z"/>
<path d="M2930 145 c0 -8 2 -15 4 -15 2 0 6 7 10 15 3 8 1 15 -4 15 -6 0 -10
-7 -10 -15z"/>
<path d="M2956 115 c-25 -19 -16 -19 20 0 16 8 22 15 14 15 -8 -1 -24 -7 -34
-15z"/>
<path d="M2911 104 c0 -11 3 -14 6 -6 3 7 2 16 -1 19 -3 4 -6 -2 -5 -13z"/>
</g>
</svg>
