<svg id="map-btn" xmlns="http://www.w3.org/2000/svg" viewBox="0 0 671.96 238.3">
  <defs>
    <style>
      .cls-1 {
        fill: #fff3d5;
      }
    </style>
  </defs>
  <g>
    <path class="cls-1" d="M279.65,57.46c2.28-3.53.56-9.15-3.31-10.84-3.39-1.47-8.57.85-6.8,4.87,1-1.4,2.87-3.09,4.72-3.12,3.15-.06,4.75,4.55,2.83,7.06s-5.71,2.83-8.66,1.69C255.24,52,262.12,35.91,273.85,35c.46,0,.92,0,1.38,0,8,0,15.4,2.18,22.76,5.6,14.15,6.59,22.68,17.76,28.66,31.55,3.12,7.19,5.76,19.68,7.59,24.57-4.42,16.69-14.77,74.06,1.58,73.88,16.19-.18,6.18-56.1,1.7-73.37,1.83-4.48,4.56-17.63,7.79-25.08,6-13.79,14.51-25,28.66-31.55,7.36-3.42,14.72-5.55,22.76-5.6.46,0,.91,0,1.37,0,11.73.94,18.62,17,5.42,22.15-2.94,1.14-6.74.82-8.66-1.69s-.31-7.12,2.84-7.06c1.84,0,3.7,1.72,4.71,3.12,1.78-4-3.4-6.34-6.79-4.87-3.87,1.69-5.59,7.31-3.31,10.84,4.38,6.8,14.29,7.22,18.86.59,2.94-4.28,4.1-9.1,2.32-14.28a14.15,14.15,0,0,0-4.78-6.42c-5.58-4.4-14.26-6.23-20.23-5.77a71.8,71.8,0,0,0-15.66,3,39.76,39.76,0,0,0-11.27,5.88c-6.51,4.75-12.6,10-17.18,16.85-.47.71-.92,1.43-1.36,2.15,3.41-18.88,6.13-44.51.48-54.54C341.19.8,338,0,335.79,0c-6.94.08-10.61,7.48-10.92,22-.26,12.54,2,27.67,3.56,36.57-.28-.44-.56-.88-.85-1.31-4.57-6.87-10.66-12.1-17.17-16.85a39.76,39.76,0,0,0-11.27-5.88,71.91,71.91,0,0,0-15.66-3c-6-.46-14.66,1.37-20.23,5.77a14.08,14.08,0,0,0-4.78,6.42c-1.78,5.18-.63,10,2.32,14.28C265.35,64.68,275.26,64.26,279.65,57.46ZM331.88,6.81c1.4-2.36,2.93-2.65,4-2.66h.06c1,0,2.48.28,3.83,2.51,3.44,5.69,3.84,19.87,1.14,39.93a273.28,273.28,0,0,1-5,27.15C332.18,58.8,324.9,18.66,331.88,6.81Z"/>
    <path class="cls-1" d="M148.73,163.59c-12.7-2.13-23.68-13.92-25.46-26a19.14,19.14,0,0,1,.61-9.18c6.3-17.77,38.15-11.76,50.49-5.71,30.11,14.77,58.29,53.84,96.09,43.4,28-7.74,50.84-47,28.25-71.86A31.55,31.55,0,0,0,263,87.1c-5.14,2.4-9.71,6.42-11.82,11.69s-1.4,11.81,2.52,15.9c1.64,0,2-1.57,1.84-3.34a17.86,17.86,0,0,0-.77-3.55c-7.86-25.14,46-12.81,48.39,15.09.83,9.72-4.68,19.32-12.7,24.86-14,9.69-34.21,8.11-49.51,2.57-30.52-11-51.81-46.91-87.91-40.74-5.14.88-10.1,2.73-15.21,3.87-19.07,4.28-27,25.25-16.89,42C126.52,164.66,139.71,169.48,148.73,163.59Z"/>
    <path class="cls-1" d="M373.25,94.27c-22.6,24.89.23,64.12,28.25,71.86,37.8,10.44,66-28.63,96.08-43.4,12.35-6,44.19-12.06,50.5,5.71a19.14,19.14,0,0,1,.61,9.18c-1.78,12-12.76,23.84-25.46,26,9,5.89,22.2,1.07,27.78-8.15,10.13-16.74,2.18-37.71-16.89-42-5.11-1.14-10.07-3-15.21-3.87-36.11-6.17-57.4,29.7-87.91,40.74-15.3,5.54-35.49,7.12-49.51-2.57-8-5.54-13.54-15.14-12.7-24.86C371.18,95,425,82.66,417.18,107.8a17.18,17.18,0,0,0-.77,3.55c-.16,1.77.2,3.29,1.83,3.34,3.93-4.09,4.64-10.64,2.53-15.9S414.09,89.5,409,87.1A31.55,31.55,0,0,0,373.25,94.27Z"/>
    <path class="cls-1" d="M645.65,186.23c-5.56-1.51-10.4.09-15.15,2.89-2.55,1.49-5.32,3.34-8.1,3.55-6.94.5-13.94.16-22,.16,2.43-2.18,3.9-3.58,5.47-4.88a36.74,36.74,0,0,1,15-7c9.51-1.53,16.37-7.22,22-14.46,3.12-4,7.64-7.39,8.43-14.05-11.43,3.15-22.49,5.4-30.48,14.31-3.86,4.29-7.48,8.81-11,13.39-7.49,9.76-17.19,14.32-29.52,13.14-1-.1-48.81,1.45-69.51,1.67-10.93.12-21.89-.49-32.83-.46-24.76.07-49.52.77-74.26.42-49.5-.71-99-2.66-148.49-2.8-53.14-.14-159.5,1.57-159.59,1.57-.58-.1-25.95-3.78-33.44-13.54-3.52-4.58-7.13-9.1-11-13.39-8-8.91-19.05-11.16-30.48-14.31.79,6.66,5.31,10,8.43,14.05,5.59,7.24,12.46,12.93,22,14.46a36.72,36.72,0,0,1,15,7c1.56,1.3,3,2.7,5.47,4.88-8.09,0-15.09.34-22-.16-2.78-.21-5.56-2.06-8.1-3.55-4.75-2.8-9.59-4.4-15.15-2.89C18.12,188.45,9.9,190.55,0,193.15c2.72,2.64,4.42,5.3,6.84,6.48,11.69,5.68,23.62,8.07,35.49.33a18.64,18.64,0,0,1,11.07-3.21c2.93.09,10.63.15,18.67.2-.1.15-.18.32-.28.47s-4.09,4-5.66,5.34a37,37,0,0,1-15,7c-9.5,1.52-16.37,7.21-22,14.45-3.12,4-7.64,7.39-8.43,14.06,11.43-3.15,22.49-5.41,30.48-14.31,3.86-4.3,7.48-8.82,11-13.4,4.53-5.91,9.88-9.91,16.13-11.88,3.76-1.18,15.86-.06,20.21-.13,36.89-.54,73.79-1.31,110.69-1.66q49.1-.46,98.2-.14c23.49.19,47,1.42,70.46,1.69,32.79.38,65.58.34,98.37.41q28.56.06,57.11-.1c13.36-.06,46.51-1.28,46.93-1.33,12.33-1.18,22,3.38,29.52,13.14,3.51,4.58,7.13,9.1,11,13.4,8,8.9,19.05,11.16,30.47,14.31-.78-6.67-5.3-10-8.42-14.06-5.6-7.24-12.47-12.93-22-14.45a37.09,37.09,0,0,1-15-7c-1.56-1.3-5.53-5.16-5.65-5.34s-.19-.32-.28-.47c8,0,15.73-.11,18.67-.2A18.64,18.64,0,0,1,629.63,200c11.86,7.74,23.79,5.35,35.49-.33,2.42-1.18,4.12-3.84,6.84-6.48C662.06,190.55,653.84,188.45,645.65,186.23Z"/>
  </g>
</svg>
